<?xml version="1.0" encoding="UTF-8"?>
<svg width="109px" height="22px" viewBox="0 0 109 22" version="1.1" xmlns="http://www.w3.org/2000/svg" xmlns:xlink="http://www.w3.org/1999/xlink">
    <!-- Generator: Sketch 51.1 (57501) - http://www.bohemiancoding.com/sketch -->
    <title>Artboard</title>
    <desc>Created with Sketch.</desc>
    <defs></defs>
    <g id="Artboard" stroke="none" stroke-width="1" fill="none" fill-rule="evenodd">
        <g id="Group-9" fill-rule="nonzero">
            <g id="Group-8">
                <path d="M0,0 L5.5,0 C8.53756612,-5.57991845e-16 11,2.46243388 11,5.5 C11,8.53756612 8.53756612,11 5.5,11 L0,11 L0,0 Z" id="Rectangle-6" fill="#6D3277"></path>
                <path d="M0,11 L5.5,11 C8.53756612,11 11,13.4624339 11,16.5 C11,19.5375661 8.53756612,22 5.5,22 L0,22 L0,11 Z" id="Rectangle-6-Copy" fill="#FF006E"></path>
            </g>
        </g>
        <path d="M22.5495287,13.7156208 C22.5495287,12.481976 21.5902543,11.7129506 20.1182643,11.7129506 L17.5050685,11.7129506 L17.5050685,15.6542056 L20.1678819,15.6542056 C21.6564112,15.6542056 22.5495287,14.9332443 22.5495287,13.7156208 Z M22.2518229,8.70093458 C22.2518229,7.59546061 21.4744798,6.89052069 20.0024898,6.89052069 L17.5050685,6.89052069 L17.5050685,10.5113485 L20.0355682,10.5113485 C21.4414014,10.5113485 22.2518229,9.83845127 22.2518229,8.70093458 Z M24.0545972,13.8598131 C24.0545972,15.5420561 22.6818424,16.8558077 20.3001956,16.8558077 L16,16.8558077 L16,5.68891856 L20.1348035,5.68891856 C22.5660679,5.68891856 23.7899698,6.9706275 23.7899698,8.5246996 C23.7899698,9.93457944 22.880313,10.7516689 21.7721857,11.1041389 C23.0291659,11.3124166 24.0545972,12.481976 24.0545972,13.8598131 Z M34.7389294,12.4499332 C34.7389294,15.2376502 32.6715277,17 30.0914103,17 C27.5278321,17 25.5762049,15.2376502 25.5762049,12.4499332 C25.5762049,9.67823765 27.593989,7.93190921 30.1575671,7.93190921 C32.7376845,7.93190921 34.7389294,9.67823765 34.7389294,12.4499332 Z M27.1143518,12.4499332 C27.1143518,14.6769025 28.520185,15.7182911 30.0914103,15.7182911 C31.6626356,15.7182911 33.2007825,14.6769025 33.2007825,12.4499332 C33.2007825,10.2389853 31.695714,9.1975968 30.1410279,9.1975968 C28.5532634,9.1975968 27.1143518,10.2389853 27.1143518,12.4499332 Z M36.1613018,12.4339119 C36.1613018,9.69425901 38.030233,7.93190921 40.4614974,7.93190921 C42.1484972,7.93190921 43.3062422,8.76502003 43.8354971,9.67823765 L43.8354971,8.07610147 L45.3571047,8.07610147 L45.3571047,16.8558077 L43.8354971,16.8558077 L43.8354971,15.2216288 C43.289703,16.1668892 42.1154188,17 40.4449582,17 C38.030233,17 36.1613018,15.1575434 36.1613018,12.4339119 Z M43.8354971,12.4499332 C43.8354971,10.4152203 42.4131247,9.1975968 40.7592033,9.1975968 C39.1052819,9.1975968 37.6994487,10.3671562 37.6994487,12.4339119 C37.6994487,14.5006676 39.1052819,15.7182911 40.7592033,15.7182911 C42.4131247,15.7182911 43.8354971,14.5166889 43.8354971,12.4499332 Z M49.4092122,12.0814419 L49.4092122,16.8558077 L47.9041437,16.8558077 L47.9041437,8.07610147 L49.4092122,8.07610147 L49.4092122,9.50200267 C49.9219278,8.5246996 50.8977414,7.91588785 52.336653,7.91588785 L52.336653,9.42189586 L51.9397119,9.42189586 C50.5008003,9.42189586 49.4092122,10.046729 49.4092122,12.0814419 Z M53.5109372,12.4339119 C53.5109372,9.69425901 55.3798684,7.93190921 57.8276721,7.93190921 C59.2500445,7.93190921 60.5566424,8.63684913 61.1851325,9.64619493 L61.1851325,5 L62.7067402,5 L62.7067402,16.8558077 L61.1851325,16.8558077 L61.1851325,15.2056075 C60.6393384,16.1829105 59.4650542,17 57.8111328,17 C55.3798684,17 53.5109372,15.1575434 53.5109372,12.4339119 Z M61.1851325,12.4499332 C61.1851325,10.4152203 59.7627601,9.1975968 58.1088387,9.1975968 C56.4549173,9.1975968 55.0490841,10.3671562 55.0490841,12.4339119 C55.0490841,14.5006676 56.4549173,15.7182911 58.1088387,15.7182911 C59.7627601,15.7182911 61.1851325,14.5166889 61.1851325,12.4499332 Z M71.7702294,14.4686248 C71.7702294,15.9105474 70.4636315,17 68.4623866,17 C66.3453672,17 64.856838,15.8785047 64.7576027,14.2763685 L66.3122888,14.2763685 C66.3949849,15.1255007 67.1723279,15.7663551 68.4458474,15.7663551 C69.6366708,15.7663551 70.2982394,15.1895861 70.2982394,14.4686248 C70.2982394,12.5140187 64.9395341,13.6515354 64.9395341,10.3831776 C64.9395341,9.03738318 66.246132,7.93190921 68.2639161,7.93190921 C70.2651609,7.93190921 71.5882981,8.97329773 71.6875333,10.6875834 L70.1824649,10.6875834 C70.116308,9.80640854 69.421661,9.16555407 68.2142984,9.16555407 C67.1061711,9.16555407 66.4446025,9.67823765 66.4446025,10.3831776 C66.4446025,12.4659546 71.7040726,11.3284379 71.7702294,14.4686248 Z M74.2180331,14.4526035 L74.2180331,9.2777036 L73.0437489,9.2777036 L73.0437489,8.07610147 L74.2180331,8.07610147 L74.2180331,5.86515354 L75.7231015,5.86515354 L75.7231015,8.07610147 L78.0882091,8.07610147 L78.0882091,9.2777036 L75.7231015,9.2777036 L75.7231015,14.4526035 C75.7231015,15.317757 76.0538858,15.6221629 76.9800818,15.6221629 L78.0882091,15.6221629 L78.0882091,16.8558077 L76.7319936,16.8558077 C75.1276898,16.8558077 74.2180331,16.2149533 74.2180331,14.4526035 Z M83.7611595,9.16555407 C82.2891695,9.16555407 81.0652677,10.1108144 80.8998755,11.8251001 L86.6224435,11.8251001 C86.6389827,10.1108144 85.3158456,9.16555407 83.7611595,9.16555407 Z M87.9951983,14.1481976 C87.5321003,15.7503338 86.0766495,17 83.8273164,17 C81.247199,17 79.3451894,15.2376502 79.3451894,12.4499332 C79.3451894,9.67823765 81.1810421,7.93190921 83.8273164,7.93190921 C86.4570514,7.93190921 88.1771296,9.72630174 88.1771296,12.129506 C88.1771296,12.4499332 88.1605904,12.706275 88.127512,13.0106809 L80.8833363,13.0106809 C80.9991108,14.7890521 82.2891695,15.7663551 83.8273164,15.7663551 C85.1835319,15.7663551 86.043571,15.0934579 86.3743553,14.1481976 L87.9951983,14.1481976 Z M91.6669038,12.0814419 L91.6669038,16.8558077 L90.1618353,16.8558077 L90.1618353,8.07610147 L91.6669038,8.07610147 L91.6669038,9.50200267 C92.1796194,8.5246996 93.155433,7.91588785 94.5943447,7.91588785 L94.5943447,9.42189586 L94.1974035,9.42189586 C92.7584919,9.42189586 91.6669038,10.046729 91.6669038,12.0814419 Z M96.2978837,12.7383178 L96.2978837,5.68891856 L97.8029522,5.68891856 L97.8029522,12.7543391 C97.8029522,14.8050734 98.9441579,15.6862483 100.647697,15.6862483 C102.351236,15.6862483 103.475903,14.8050734 103.475903,12.7543391 L103.475903,5.68891856 L104.980971,5.68891856 L104.980971,12.7383178 C104.980971,15.6381842 103.012805,16.9679573 100.631158,16.9679573 C98.2495109,16.9679573 96.2978837,15.6381842 96.2978837,12.7383178 Z M107.494932,16.8558077 L107.494932,5.68891856 L109,5.68891856 L109,16.8558077 L107.494932,16.8558077 Z" id="BoardsterUIUI" fill="#5E2572"></path>
    </g>
</svg>