<svg width="1440" height="65" viewBox="0 0 1440 65" fill="none" xmlns="http://www.w3.org/2000/svg">
<line y1="31" x2="1440" y2="31" stroke="#252525" stroke-width="2"/>
<path d="M722.286 32.8573C722.286 41.3546 719.858 49.005 715.983 54.5047C712.106 60.0071 706.844 63.2859 701.143 63.2859C695.441 63.2859 690.18 60.0071 686.303 54.5047C682.428 49.005 680 41.3546 680 32.8573C680 24.3599 682.428 16.7096 686.303 11.2099C690.18 5.70746 695.441 2.42871 701.143 2.42871C706.844 2.42871 712.106 5.70746 715.983 11.2099C719.858 16.7096 722.286 24.3599 722.286 32.8573Z" fill="white" stroke="#252525" stroke-width="2"/>
<path d="M760.001 31.4286C760.001 39.9259 757.572 47.5763 753.698 53.076C749.821 58.5784 744.559 61.8571 738.858 61.8571C733.156 61.8571 727.895 58.5784 724.018 53.076C720.143 47.5763 717.715 39.9259 717.715 31.4286C717.715 22.9312 720.143 15.2808 724.018 9.78117C727.895 4.27875 733.156 1 738.858 1C744.559 1 749.821 4.27875 753.698 9.78117C757.572 15.2808 760.001 22.9312 760.001 31.4286Z" fill="white" stroke="#252525" stroke-width="2"/>
<ellipse cx="704.571" cy="45.1429" rx="8.57143" ry="12.1429" fill="#252525"/>
<ellipse cx="742.286" cy="45.1429" rx="8.57143" ry="12.1429" fill="#252525"/>
</svg>
