<svg width="31" height="54" viewBox="0 0 31 54" fill="none" xmlns="http://www.w3.org/2000/svg">
<path d="M27.3849 40.9122C27.4248 36.6304 27.3846 31.8785 27.1559 27.9902H12.9992C7.47639 27.9902 2.99924 32.4673 2.99924 37.9902V40.5C2.99924 46.0229 7.47639 50.5 12.9992 50.5H17.5639C22.9248 50.5 27.3349 46.2729 27.3849 40.9122Z" fill="#252525"/>
<path d="M2.99924 3C17.6777 3.00024 26.7167 20.5235 27.1559 27.9902M27.1559 27.9902C27.3846 31.8785 27.4248 36.6304 27.3849 40.9122C27.3349 46.2729 22.9248 50.5 17.5639 50.5H12.9992C7.47639 50.5 2.99924 46.0229 2.99924 40.5V37.9902C2.99924 32.4673 7.47639 27.9902 12.9992 27.9902H27.1559Z" stroke="#252525" stroke-width="6"/>
</svg>
