<svg width="24" height="24" viewBox="0 0 24 24" fill="none" xmlns="http://www.w3.org/2000/svg">
<path d="M23.2647 0.486C23.1951 0.312614 23.0613 0.172743 22.8912 0.0954859C22.721 0.0182285 22.5277 0.00953265 22.3513 0.0712073C22.1749 0.132882 22.0291 0.260179 21.9442 0.426615C21.8593 0.593052 21.8419 0.785813 21.8955 0.9648C23.0103 4.1688 20.7975 6.5616 19.1103 7.8432L18.4287 6.8664C18.1995 6.5388 17.6871 6.2664 17.2887 6.2616L13.4631 6.2784C12.9957 6.29251 12.5409 6.43265 12.1467 6.684L0.873881 14.5884C0.611675 14.7729 0.433264 15.0538 0.377711 15.3696C0.322159 15.6854 0.393991 16.0103 0.577481 16.2732L5.70028 23.6028C6.08428 24.1488 6.69748 24.0828 7.24468 23.7012L18.5175 15.7956C18.8415 15.5664 19.2159 15.072 19.3479 14.694L20.5455 10.92C20.6775 10.5432 20.5971 9.9684 20.3679 9.6408L19.9527 9.0456C22.2183 7.3092 24.5703 4.2408 23.2647 0.486ZM18.0195 11.7156C17.8118 11.861 17.5775 11.964 17.33 12.0188C17.0825 12.0736 16.8266 12.0791 16.577 12.0349C16.3274 11.9908 16.0889 11.8979 15.8752 11.7616C15.6615 11.6253 15.4767 11.4482 15.3315 11.2404C15.0374 10.82 14.9221 10.3001 15.011 9.79476C15.0999 9.28945 15.3856 8.84005 15.8055 8.5452C16.1346 8.31458 16.5276 8.19257 16.9295 8.19623C17.3314 8.19988 17.7222 8.32903 18.0471 8.5656C17.7207 8.7624 17.4963 8.8776 17.4543 8.8956C17.3055 8.96653 17.1853 9.08587 17.1132 9.23409C17.0412 9.3823 17.0216 9.55059 17.0577 9.71138C17.0939 9.87217 17.1835 10.0159 17.312 10.1191C17.4405 10.2223 17.6003 10.2787 17.7651 10.2792C17.8683 10.2792 17.9739 10.2552 18.0735 10.2084C18.3063 10.098 18.5559 9.9672 18.8163 9.8124C18.8762 10.1725 18.8332 10.5421 18.6922 10.8788C18.5512 11.2156 18.318 11.5056 18.0195 11.7156Z" fill="#EB1754"/>
</svg>
