<svg width="23" height="18" viewBox="0 0 23 18" fill="none" xmlns="http://www.w3.org/2000/svg">
<path d="M22.0525 2.51C21.277 2.8535 20.443 3.0825 19.563 3.191C20.4575 2.66 21.146 1.813 21.469 0.812C20.632 1.3025 19.7045 1.663 18.718 1.853C17.93 1.018 16.806 0.5 15.561 0.5C13.1695 0.5 11.2305 2.4215 11.2305 4.791C11.2305 5.1265 11.27 5.453 11.3435 5.77C7.74553 5.5895 4.55403 3.879 2.41903 1.283C2.04403 1.9175 1.83303 2.66 1.83303 3.444C1.83303 4.9335 2.59553 6.245 3.75853 7.0175C3.04853 6.996 2.38053 6.7985 1.79553 6.4815C1.79553 6.4945 1.79553 6.5135 1.79553 6.532C1.79553 8.6135 3.28853 10.347 5.26753 10.7415C4.90603 10.8405 4.52353 10.8955 4.12953 10.8955C3.85003 10.8955 3.57753 10.864 3.31353 10.8165C3.86453 12.5175 5.46303 13.761 7.35703 13.798C5.87503 14.947 4.00853 15.635 1.97903 15.635C1.62853 15.635 1.28553 15.615 0.946533 15.574C2.86503 16.7885 5.14153 17.5 7.58553 17.5C15.549 17.5 19.906 10.9605 19.906 5.287C19.906 5.101 19.9 4.916 19.8915 4.733C20.7415 4.1325 21.474 3.3755 22.0525 2.51Z" fill="url(#paint0_linear_1_1006)"/>
<defs>
<linearGradient id="paint0_linear_1_1006" x1="4.17053" y1="1.156" x2="19.399" y2="16.3845" gradientUnits="userSpaceOnUse">
<stop stop-color="#2AA4F4"/>
<stop offset="1" stop-color="#007AD9"/>
</linearGradient>
</defs>
</svg>
