<svg width="64" height="73" viewBox="0 0 64 73" fill="none" xmlns="http://www.w3.org/2000/svg">
<path d="M35.1374 29.0006C34.4597 31.9015 32.3541 33.4738 31.1251 34.3143C30.4021 34.8023 28.9201 35.7963 26.8506 36.203C26.3897 36.2933 25.8927 36.3566 25.3776 36.3747C25.0342 36.3837 24.6999 36.3837 24.3745 36.3566C20.1001 36.0674 17.2896 32.9317 16.8378 32.4166C16.8016 32.6877 16.7655 32.9588 16.7294 33.2299C16.5486 33.2118 16.3679 33.1937 16.1871 33.1756C16.1962 31.2056 16.2052 29.2356 16.2142 27.2655L16.7294 27.2926C16.6571 27.8077 16.5848 28.7476 16.9191 29.841C17.2987 31.0972 18.0035 31.9014 18.3831 32.281C18.9072 32.8503 19.8109 33.6817 21.1484 34.2872C21.4827 34.4408 22.7298 35.0191 24.3745 35.1095C25.1246 35.1547 25.965 35.1005 26.8416 34.8474C27.1579 34.7661 27.4922 34.6487 27.8176 34.5041C29.643 33.6907 30.619 32.3443 30.9624 31.8472C32.2547 30.0037 33.1132 27.13 32.0468 24.6629C31.8118 24.1117 31.5317 23.7231 31.0979 23.2261V23.217H31.0889C30.9895 23.1086 30.8901 22.9911 30.7726 22.8555C30.6551 22.72 30.5286 22.5844 30.3931 22.4308C30.2846 22.3133 30.1943 22.2139 30.0768 22.1145L30.0677 22.1055C29.2725 21.3012 28.5134 20.768 26.8235 19.6204C26.3536 19.3041 25.8204 18.9335 25.1878 18.5088C24.8987 18.31 24.6276 18.1293 24.3836 17.9576C22.1515 16.4304 21.6906 16.0598 21.2297 15.6351C19.8199 14.3609 19.0066 13.6199 18.3831 12.3818C18.1843 11.9842 16.6661 8.81227 18.2475 5.54997C19.5579 2.84795 22.1243 1.90811 23.0732 1.56471C25.6216 0.633915 27.8266 1.09481 28.5224 1.26651C31.0347 1.89005 32.5619 3.37209 33.1312 3.97756C33.1855 3.56187 33.2397 3.14617 33.2939 2.73047H33.9717C33.9897 4.73666 34.0078 6.74284 34.0259 8.74902C33.818 8.70384 33.6102 8.65863 33.4023 8.61345C33.3752 8.08931 33.1403 4.65532 30.4744 2.86602C27.0675 0.570659 21.5912 2.24248 20.2808 5.46864C19.4043 7.64652 20.6152 10.0413 20.823 10.457C21.1845 11.1618 21.7267 11.9481 24.2932 13.9271C24.3293 13.9542 24.3655 13.9814 24.3926 13.9994C25.3505 14.7314 26.1367 15.2917 26.8235 15.7435C28.8929 17.1352 29.9955 17.6413 31.6673 19.3492C32.3993 20.0993 33.1764 20.9126 33.8813 22.0965C34.0168 22.3224 34.1434 22.5664 34.2699 22.8194C34.3332 22.9369 34.3964 23.0724 34.4687 23.217C35.0651 24.4641 35.7067 26.5787 35.1374 29.0006Z" fill="#EB1754" stroke="white" stroke-width="0.225921" stroke-miterlimit="10"/>
<path d="M28.7496 6.62539C28.7406 6.77901 28.7316 6.94167 28.7316 7.09529C27.7465 7.23085 26.9965 7.68269 26.8338 8.31527C26.8067 8.42372 26.7977 8.55928 26.8158 8.72194C26.8158 11.0625 26.8248 13.403 26.8248 15.7436C26.138 15.2917 25.3518 14.7314 24.3939 13.9995V8.41467C24.3577 8.26104 24.2222 7.80017 23.7703 7.4387C23.201 6.99589 22.5774 7.05916 22.4419 7.07723C22.4329 6.90553 22.4329 6.73383 22.4238 6.57117C24.5294 6.58924 26.644 6.60731 28.7496 6.62539Z" fill="#EC008C" stroke="white" stroke-width="0.225921" stroke-miterlimit="10"/>
<path d="M26.8418 34.8476C25.9653 35.1007 25.1248 35.1549 24.3748 35.1097C24.3838 29.3894 24.3838 23.6781 24.3838 17.9578C24.6278 18.1295 24.8989 18.3102 25.1881 18.509C25.8206 18.9337 26.3538 19.3043 26.8237 19.6205V22.1147V23.2262C26.8237 23.2262 26.8418 30.9708 26.8418 34.8476Z" fill="#EC008C" stroke="white" stroke-width="0.225921" stroke-miterlimit="10"/>
<path d="M26.8239 22.1149C26.8239 22.124 26.8239 22.124 26.8239 22.124V23.2265V22.1149Z" fill="#EB1754" stroke="white" stroke-width="0.0140071" stroke-miterlimit="10"/>
<path d="M28.7664 40.0167V40.6673C26.6699 40.6854 24.5824 40.7035 22.4858 40.7216V40.0528C22.6395 40.0799 23.0823 40.1161 23.5431 39.8721C24.1034 39.5739 24.3203 39.0678 24.3745 38.9413V36.3568C24.6999 36.3839 25.0342 36.3839 25.3776 36.3748C25.8927 36.3568 26.3897 36.2935 26.8506 36.2031V39.0226C26.932 39.1672 27.1308 39.5377 27.5645 39.7908C28.0977 40.098 28.6128 40.0348 28.7664 40.0167Z" fill="#EC008C" stroke="white" stroke-width="0.225921" stroke-miterlimit="10"/>
<path d="M46.813 44.3275C46.813 44.6438 46.56 44.8968 46.2437 44.8878L43.9392 44.8697C43.6772 44.8697 43.4693 45.0776 43.4693 45.3396V46.1258C43.4693 47.2464 42.5566 48.1682 41.4361 48.1772C41.427 48.1772 41.427 48.1772 41.418 48.1772C41.1649 48.1772 40.9661 47.9694 40.9661 47.7163L40.9842 45.3216C40.9842 45.0685 40.7764 44.8607 40.5233 44.8607L38.1195 44.8336C37.8123 44.8336 37.5683 44.5896 37.5683 44.2823L37.5592 43.4328C37.5592 42.8635 38.0201 42.4027 38.5894 42.4027H40.5414C40.7944 42.4027 41.0023 42.1948 41.0023 41.9418L41.0113 40.6133C41.0113 40.3061 41.0204 38.9687 41.0204 38.8421C41.0294 33.6279 41.0294 28.4226 41.0384 23.2174H34.4686C34.3963 23.0728 34.3331 22.9373 34.2698 22.8198C34.1433 22.5667 34.0168 22.3228 33.8812 22.0968L41.0384 22.0697C41.0384 17.488 41.0475 12.9064 41.0475 8.32468C41.0023 8.17105 40.8667 7.70112 40.4149 7.34868C39.8546 6.90588 39.222 6.96913 39.0955 6.97817C39.0865 6.81551 39.0774 6.64381 39.0684 6.47211C41.183 6.49018 43.2886 6.5173 45.3942 6.53537C45.3852 6.689 45.3851 6.84261 45.3761 7.00528C44.4001 7.13179 43.641 7.59268 43.4874 8.22526C43.4513 8.3337 43.4422 8.46927 43.4603 8.63193C43.4784 18.7261 43.4874 28.8293 43.5055 38.9235C43.5055 39.0952 43.4603 40.1073 43.4603 40.5862V41.9328C43.4603 42.1858 43.6682 42.3936 43.9212 42.3936H45.7828C46.3431 42.3936 46.7949 42.8364 46.8039 43.3967L46.813 44.3275Z" fill="#EC008C" stroke="white" stroke-width="0.225921" stroke-miterlimit="10"/>
<path d="M34.4686 23.2172H34.4415C34.3782 23.0726 34.315 22.937 34.2517 22.8196C34.1343 22.5665 34.0077 22.3225 33.8812 22.0966C34.0168 22.3225 34.1433 22.5665 34.2698 22.8196C34.3331 22.937 34.3963 23.0726 34.4686 23.2172Z" fill="#EB1754" stroke="white" stroke-width="0.225921" stroke-miterlimit="10"/>
<path d="M31.0892 23.2173L26.8239 23.2263V22.1238C26.8239 22.1238 26.8239 22.1238 26.8239 22.1148L30.0681 22.1058L30.0771 22.1148C30.1946 22.2142 30.285 22.3136 30.3934 22.4311C30.529 22.5847 30.6555 22.7203 30.773 22.8558C30.8904 22.9914 30.9898 23.1088 31.0892 23.2173Z" fill="#EC008C" stroke="white" stroke-width="0.225921" stroke-miterlimit="10"/>
<path d="M26.8239 22.1149C26.8239 22.124 26.8239 22.124 26.8239 22.124V23.2265V22.1149Z" fill="#EB1754" stroke="white" stroke-width="0.225921" stroke-miterlimit="10"/>
<path d="M30.0681 22.1058H30.078V22.1156L30.0681 22.1058Z" fill="#EB1754" stroke="white" stroke-width="0.225921" stroke-miterlimit="10"/>
<path d="M31.0973 23.2166C30.9889 23.1081 30.8895 22.9907 30.772 22.8551C30.8895 22.9816 30.9979 23.1081 31.0973 23.2166Z" fill="#EB1754" stroke="white" stroke-width="0.225921" stroke-miterlimit="10"/>
<path d="M10.5037 65.3256C10.5037 63.4617 9.30182 62.5211 7.15926 62.0856L5.31283 61.7198C4.14575 61.4759 3.11802 61.0579 3.11802 59.8734C3.11802 58.7934 4.0064 57.8353 5.62638 57.8353C7.1941 57.8353 8.27409 58.8805 8.3786 60.3785H10.3295C10.1728 57.8876 8.20441 56.3025 5.60896 56.3025C3.01351 56.3025 1.16708 57.8876 1.16708 59.9953C1.16708 62.1204 2.76964 63.0088 4.52897 63.3572L6.34056 63.7056C7.78635 64.0191 8.4657 64.5417 8.4657 65.5869C8.4657 66.8759 7.2812 67.6249 5.69606 67.6249C3.77995 67.6249 2.76964 66.5972 2.68255 65.012H0.731603C0.888376 67.503 2.71738 69.1578 5.73089 69.1578C8.76182 69.1578 10.5037 67.503 10.5037 65.3256ZM17.129 68.9836H18.5922V63.0611C18.5922 60.8663 17.2683 59.5773 14.9864 59.5773C12.8265 59.5773 11.3458 60.9534 11.2587 63.0262H12.8613C12.9136 61.7372 13.6974 60.9708 14.9864 60.9708C16.2058 60.9708 16.92 61.7198 16.92 63.0437V63.723C16.1709 63.6359 15.7355 63.6185 15.1955 63.6185C12.4432 63.6185 10.9975 64.5591 10.9975 66.3707C10.9975 68.0604 12.2516 69.1578 14.1677 69.1578C15.5264 69.1578 16.5542 68.5829 17.129 67.5552V68.9836ZM12.6697 66.3185C12.6697 65.2385 13.5407 64.7159 15.3 64.7159C15.7529 64.7159 16.2406 64.7333 16.92 64.8204V65.5694C16.92 66.9804 15.9967 67.9036 14.5161 67.9036C13.3839 67.9036 12.6697 67.2765 12.6697 66.3185ZM21.6761 68.9836V56.4766H19.8993V68.9836H21.6761ZM28.8386 65.1862C28.8386 66.632 27.8805 67.6075 26.696 67.6075C25.5464 67.6075 24.7451 66.9455 24.7451 65.343V59.7514H22.9858V65.6914C22.9858 68.0604 24.2748 69.1578 26.1386 69.1578C27.3928 69.1578 28.4728 68.4784 28.9605 67.5204V68.9836H30.5979V59.7514H28.8386V65.1862ZM40.8102 64.3675C40.8102 61.563 39.1902 59.5773 36.7167 59.5773C35.4625 59.5773 34.3999 60.2043 33.7554 61.3366V56.4766H31.9961V68.9836H33.6335V67.3288C34.2954 68.4958 35.4102 69.1578 36.7167 69.1578C39.2076 69.1578 40.8102 67.1372 40.8102 64.3675ZM38.9812 64.3675C38.9812 66.423 37.8837 67.5901 36.3683 67.5901C34.8702 67.5901 33.7554 66.3707 33.7554 64.3327C33.7554 62.2598 34.9051 61.1276 36.3683 61.1276C37.8837 61.1276 38.9812 62.2772 38.9812 64.3675ZM43.308 64.263C43.308 62.225 44.7538 61.354 46.7396 61.4585V59.6295C45.2241 59.6295 43.8306 60.4308 43.1861 61.7024V59.7514H41.5487V68.9836H43.308V64.263ZM49.2293 57.6089C49.2293 56.9295 48.7067 56.4418 47.9577 56.4418C47.2087 56.4418 46.6687 56.9295 46.6687 57.6089C46.6687 58.2708 47.2087 58.776 47.9577 58.776C48.7067 58.776 49.2293 58.2708 49.2293 57.6089ZM48.8461 68.9836V59.7514H47.0868V68.9836H48.8461ZM52.8387 68.9836V61.2495H55.4168V59.7514H52.8387V59.0895C52.8387 58.2011 53.3265 57.8179 54.1626 57.8179C54.4761 57.8179 54.7897 57.8528 55.0684 57.9747V56.5463C54.72 56.407 54.302 56.3199 53.7794 56.3199C52.0375 56.3199 51.0794 57.2953 51.0794 59.0721V59.7514H49.0414V61.2495H51.0794V68.9836H52.8387ZM63.4628 59.7514H61.686L59.1951 66.7888L56.5126 59.7514H54.6139L58.2545 68.8616L56.9306 72.3455H58.8467L63.4628 59.7514Z" fill="#EB1754"/>
</svg>
