<svg width="32" height="37" viewBox="0 0 32 37" fill="none" xmlns="http://www.w3.org/2000/svg">
<path d="M17.3039 14.2482C16.9679 15.6865 15.9239 16.4661 15.3146 16.8828C14.9561 17.1247 14.2213 17.6176 13.1953 17.8192C12.9668 17.864 12.7204 17.8953 12.465 17.9043C12.2947 17.9088 12.1289 17.9088 11.9676 17.8953C9.84838 17.752 8.45495 16.1972 8.23092 15.9419C8.213 16.0763 8.19508 16.2107 8.17716 16.3451C8.08755 16.3361 7.99793 16.3272 7.90833 16.3182C7.91281 15.3415 7.91729 14.3647 7.92177 13.388L8.17716 13.4014C8.14131 13.6568 8.10547 14.1228 8.27124 14.6649C8.45942 15.2877 8.8089 15.6865 8.99708 15.8746C9.25695 16.1569 9.705 16.5691 10.3681 16.8693C10.5339 16.9455 11.1522 17.2322 11.9676 17.277C12.3395 17.2994 12.7562 17.2726 13.1908 17.1471C13.3476 17.1068 13.5134 17.0485 13.6747 16.9769C14.5798 16.5736 15.0637 15.906 15.2339 15.6596C15.8746 14.7456 16.3003 13.3208 15.7716 12.0976C15.6551 11.8243 15.5162 11.6316 15.3011 11.3852V11.3807H15.2966C15.2474 11.3269 15.1981 11.2687 15.1398 11.2015C15.0816 11.1343 15.0189 11.0671 14.9517 10.9909C14.8979 10.9327 14.8531 10.8834 14.7948 10.8341L14.7904 10.8296C14.3961 10.4309 14.0197 10.1665 13.1819 9.59749C12.9489 9.44067 12.6845 9.25696 12.3709 9.04638C12.2275 8.94781 12.0931 8.85821 11.9721 8.77308C10.8655 8.01588 10.6369 7.83217 10.4084 7.62159C9.70948 6.98984 9.30623 6.62244 8.99708 6.00861C8.89851 5.81147 8.14579 4.23882 8.92988 2.62136C9.57955 1.28169 10.852 0.815722 11.3225 0.645463C12.586 0.183973 13.6792 0.412484 14.0242 0.497613C15.2698 0.806767 16.027 1.54157 16.3092 1.84176C16.3361 1.63566 16.363 1.42955 16.3899 1.22345H16.7259C16.7349 2.21812 16.7438 3.21279 16.7528 4.20746C16.6498 4.18506 16.5467 4.16264 16.4437 4.14024C16.4302 3.88037 16.3137 2.17779 14.992 1.29065C13.3028 0.15261 10.5877 0.981503 9.93799 2.58104C9.50338 3.66084 10.1038 4.84816 10.2068 5.05426C10.386 5.40374 10.6549 5.79354 11.9273 6.77477C11.9452 6.78821 11.9632 6.80166 11.9766 6.81062C12.4515 7.17354 12.8413 7.45133 13.1819 7.67535C14.2079 8.36535 14.7545 8.61625 15.5834 9.46306C15.9463 9.83494 16.3316 10.2382 16.6811 10.8251C16.7483 10.9371 16.8111 11.0581 16.8738 11.1836C16.9052 11.2418 16.9365 11.309 16.9724 11.3807C17.2681 11.999 17.5862 13.0475 17.3039 14.2482Z" fill="#EB1754"/>
<path d="M23.0918 21.8471C23.0918 22.004 22.9663 22.1294 22.8095 22.1249L21.667 22.116C21.537 22.116 21.434 22.219 21.434 22.349V22.7388C21.434 23.2943 20.9815 23.7513 20.4259 23.7558C20.4214 23.7558 20.4214 23.7558 20.4169 23.7558C20.2914 23.7558 20.1929 23.6528 20.1929 23.5273L20.2018 22.34C20.2018 22.2146 20.0988 22.1115 19.9733 22.1115L18.7815 22.0981C18.6292 22.0981 18.5082 21.9771 18.5082 21.8247L18.5037 21.4036C18.5037 21.1213 18.7322 20.8928 19.0145 20.8928H19.9823C20.1077 20.8928 20.2108 20.7897 20.2108 20.6643L20.2153 20.0057C20.2153 19.8533 20.2198 19.1902 20.2198 19.1275C20.2243 16.5422 20.2242 13.9615 20.2287 11.3807H16.9714C16.9356 11.309 16.9042 11.2418 16.8728 11.1836C16.8101 11.0581 16.7474 10.9372 16.6802 10.8251L20.2287 10.8117C20.2287 8.54009 20.2332 6.26849 20.2332 3.99688C20.2108 3.92071 20.1436 3.68772 19.9196 3.51298C19.6418 3.29343 19.3282 3.32479 19.2654 3.32928C19.2609 3.24863 19.2565 3.1635 19.252 3.07837C20.3004 3.08733 21.3444 3.10077 22.3883 3.10974C22.3838 3.1859 22.3838 3.26207 22.3794 3.34272C21.8955 3.40544 21.5191 3.63395 21.4429 3.94759C21.425 4.00135 21.4205 4.06856 21.4295 4.14921C21.4385 9.15392 21.4429 14.1631 21.4519 19.1678C21.4519 19.2529 21.4295 19.7548 21.4295 19.9922V20.6598C21.4295 20.7853 21.5326 20.8883 21.658 20.8883H22.581C22.8588 20.8883 23.0828 21.1079 23.0873 21.3857L23.0918 21.8471Z" fill="#EC008C"/>
<path d="M5.20777 32.8211C5.20777 31.897 4.61186 31.4306 3.54958 31.2147L2.63411 31.0334C2.05547 30.9125 1.54592 30.7052 1.54592 30.1179C1.54592 29.5824 1.98638 29.1074 2.78957 29.1074C3.56685 29.1074 4.10231 29.6256 4.15413 30.3684H5.12141C5.04368 29.1334 4.06776 28.3474 2.78093 28.3474C1.4941 28.3474 0.578641 29.1334 0.578641 30.1784C0.578641 31.232 1.37319 31.6725 2.24547 31.8452L3.14366 32.0179C3.86049 32.1734 4.19731 32.4325 4.19731 32.9507C4.19731 33.5898 3.61003 33.9611 2.82411 33.9611C1.87411 33.9611 1.37319 33.4516 1.33001 32.6657H0.36273C0.440458 33.9007 1.34728 34.7211 2.84139 34.7211C4.34413 34.7211 5.20777 33.9007 5.20777 32.8211ZM8.49259 34.6348H9.21805V31.6984C9.21805 30.6102 8.56168 29.9711 7.4303 29.9711C6.35939 29.9711 5.62529 30.6534 5.58211 31.6811H6.37666C6.40257 31.042 6.79121 30.662 7.4303 30.662C8.03486 30.662 8.38895 31.0334 8.38895 31.6897V32.0266C8.01758 31.9834 7.80167 31.9747 7.53394 31.9747C6.16938 31.9747 5.45256 32.4411 5.45256 33.3393C5.45256 34.177 6.07438 34.7211 7.02439 34.7211C7.69803 34.7211 8.20758 34.4361 8.49259 33.9266V34.6348ZM6.28166 33.3134C6.28166 32.7779 6.71348 32.5188 7.58576 32.5188C7.81031 32.5188 8.05213 32.5275 8.38895 32.5707V32.942C8.38895 33.6416 7.93122 34.0993 7.19712 34.0993C6.63575 34.0993 6.28166 33.7884 6.28166 33.3134ZM10.747 34.6348V28.4338H9.86612V34.6348H10.747ZM14.2982 32.752C14.2982 33.4688 13.8232 33.9525 13.2359 33.9525C12.6659 33.9525 12.2687 33.6243 12.2687 32.8298V30.0575H11.3964V33.0025C11.3964 34.177 12.0355 34.7211 12.9596 34.7211C13.5814 34.7211 14.1169 34.3843 14.3587 33.9093V34.6348H15.1705V30.0575H14.2982V32.752ZM20.2338 32.3461C20.2338 30.9556 19.4306 29.9711 18.2042 29.9711C17.5824 29.9711 17.0555 30.282 16.736 30.8434V28.4338H15.8637V34.6348H16.6755V33.8143C17.0037 34.3929 17.5565 34.7211 18.2042 34.7211C19.4392 34.7211 20.2338 33.7193 20.2338 32.3461ZM19.3269 32.3461C19.3269 33.3652 18.7828 33.9439 18.0315 33.9439C17.2887 33.9439 16.736 33.3393 16.736 32.3288C16.736 31.3011 17.306 30.7397 18.0315 30.7397C18.7828 30.7397 19.3269 31.3097 19.3269 32.3461ZM21.4722 32.2943C21.4722 31.2838 22.189 30.852 23.1736 30.9038V29.997C22.4222 29.997 21.7313 30.3943 21.4118 31.0247V30.0575H20.5999V34.6348H21.4722V32.2943ZM24.408 28.9952C24.408 28.6584 24.1489 28.4165 23.7775 28.4165C23.4062 28.4165 23.1384 28.6584 23.1384 28.9952C23.1384 29.3234 23.4062 29.5738 23.7775 29.5738C24.1489 29.5738 24.408 29.3234 24.408 28.9952ZM24.218 34.6348V30.0575H23.3457V34.6348H24.218ZM26.1976 34.6348V30.8002H27.4757V30.0575H26.1976V29.7293C26.1976 29.2888 26.4394 29.0988 26.8539 29.0988C27.0094 29.0988 27.1648 29.1161 27.303 29.1765V28.4683C27.1303 28.3993 26.923 28.3561 26.6639 28.3561C25.8003 28.3561 25.3253 28.8397 25.3253 29.7206V30.0575H24.3148V30.8002H25.3253V34.6348H26.1976ZM31.465 30.0575H30.5841L29.349 33.5466L28.019 30.0575H27.0777L28.8827 34.5743L28.2263 36.3016H29.1763L31.465 30.0575Z" fill="#EB1754"/>
</svg>