<svg height="512pt" viewBox="0 0 512 512" width="512pt" xmlns="http://www.w3.org/2000/svg"><path d="m467 121c-24.8125 0-45 20.1875-45 45v77.578125c-15.832031-5.570313-34.179688-2.035156-46.816406 10.605469l-81.214844 81.214844c-14.167969 14.164062-21.96875 33-21.96875 53.03125v108.570312c0 8.285156 6.714844 15 15 15h90c8.285156 0 15-6.714844 15-15v-38.730469l98.03125-98.035156c14.167969-14.164063 21.96875-33 21.96875-53.03125v-141.203125c0-24.8125-20.1875-45-45-45zm15 186.203125c0 12.019531-4.679688 23.320313-13.179688 31.820313l-102.425781 102.425781c-2.8125 2.8125-4.394531 6.625-4.394531 10.605469v29.945312h-60v-93.570312c0-12.019532 4.679688-23.320313 13.179688-31.820313l81.214843-81.214844c5.847657-5.847656 15.363281-5.847656 21.210938 0 5.859375 5.859375 5.863281 15.347657 0 21.207031l-73.257813 73.257813c-5.855468 5.859375-5.855468 15.355469 0 21.210937 5.859375 5.859376 15.355469 5.859376 21.214844 0l73.253906-73.253906c8.5-8.5 13.179688-19.800781 13.179688-31.820312l.003906-119.996094c0-8.269531 6.730469-15 15-15s15 6.730469 15 15zm0 0"/><path d="m218.03125 335.398438-81.214844-81.214844c-12.636718-12.640625-30.984375-16.171875-46.816406-10.605469v-77.578125c0-24.8125-20.1875-45-45-45s-45 20.1875-45 45v141.203125c0 20.03125 7.800781 38.867187 21.96875 53.03125l98.03125 98.035156v38.730469c0 8.285156 6.714844 15 15 15h90c8.285156 0 15-6.714844 15-15v-108.570312c0-20.03125-7.800781-38.867188-21.96875-53.03125zm-8.03125 146.601562h-60v-29.945312c0-3.976563-1.578125-7.792969-4.394531-10.605469l-102.425781-102.425781c-8.5-8.5-13.179688-19.800782-13.179688-31.820313v-141.203125c0-8.269531 6.730469-15 15-15s15 6.730469 15 15l.003906 120c0 12.019531 4.679688 23.320312 13.179688 31.816406l73.253906 73.257813c5.859375 5.859375 15.355469 5.859375 21.214844 0s5.859375-15.355469 0-21.214844l-73.257813-73.253906c-5.859375-5.859375-5.863281-15.347657 0-21.207031 5.847657-5.847657 15.363281-5.847657 21.210938 0l81.214843 81.214843c8.5 8.5 13.179688 19.796875 13.179688 31.820313zm0 0"/><path d="m391.308594 134.984375c0-36.054687-14.039063-69.957031-39.539063-95.453125-25.507812-25.492188-59.410156-39.53125-95.460937-39.53125-36.050782 0-69.953125 14.039062-95.46875 39.535156-52.617188 52.636719-52.617188 138.277344.007812 190.917969 25.507813 25.492187 59.410156 39.53125 95.460938 39.53125 36.050781 0 69.953125-14.039063 95.46875-39.539063 25.492187-25.507812 39.53125-59.410156 39.53125-95.460937zm-129.171875 104.835937c5.222656-2.34375 8.863281-7.582031 8.863281-13.675781v-16.378906c17.460938-6.195313 30-22.867187 30-42.421875 0-24.8125-20.1875-45-45-45-8.269531 0-15-6.730469-15-15s6.730469-15 15-15c5.339844 0 10.320312 2.878906 13.003906 7.511719 4.144532 7.171875 13.324219 9.621093 20.492188 5.472656 7.171875-4.148437 9.621094-13.324219 5.476562-20.496094-5.429687-9.382812-14.023437-16.351562-23.972656-19.882812v-17.003907c0-8.285156-6.714844-15-15-15s-15 6.714844-15 15v16.980469c-17.460938 6.191407-30 22.863281-30 42.417969 0 24.8125 20.1875 45 45 45 8.269531 0 15 6.730469 15 15s-6.730469 15-15 15c-5.339844 0-10.320312-2.878906-13.003906-7.507812-4.144532-7.175782-13.324219-9.621094-20.492188-5.476563-7.171875 4.148437-9.621094 13.324219-5.476562 20.496094 5.429687 9.382812 14.023437 16.351562 23.972656 19.882812v16.40625c0 6.058594 3.601562 11.269531 8.773438 13.632813-25.582032-1.558594-49.425782-12.261719-67.714844-30.539063-40.925782-40.9375-40.925782-107.550781-.003906-148.484375 19.839843-19.832031 46.210937-30.753906 74.253906-30.753906 28.039062 0 54.410156 10.921875 74.25 30.746094 19.828125 19.828125 30.75 46.195312 30.75 74.238281s-10.921875 54.414063-30.746094 74.25c-18.460938 18.449219-42.574219 29.179687-68.425781 30.585937zm0 0"/></svg>