<svg height="480pt" viewBox="0 -32 480.11064 480" width="480pt" xmlns="http://www.w3.org/2000/svg"><path d="m144.109375 97.523438v-9.472657h-16v8h-8v-8h-16v8c-4.417969 0-8 3.582031-8 8v64c0 4.417969 3.582031 8 8 8v8h16v-8h8v8h16v-9.472656c7.570313-2.617187 13.308594-8.867187 15.277344-16.628906 1.964843-7.761719-.109375-15.992188-5.515625-21.898438 5.40625-5.902343 7.480468-14.132812 5.515625-21.894531-1.96875-7.761719-7.707031-14.015625-15.277344-16.632812zm-32 14.527343h24c4.417969 0 8 3.582031 8 8s-3.582031 8-8 8h-24zm24 48h-24v-16h24c4.417969 0 8 3.582031 8 8s-3.582031 8-8 8zm0 0"/><path d="m322.144531 238.042969c-18.554687-30.339844-52.351562-47.957031-87.851562-45.785157-35.496094 2.171876-66.894531 23.769532-81.613281 56.144532-5.6875 12.441406-8.613282 25.96875-8.570313 39.648437.0625 40.609375 25.664063 76.785157 63.9375 90.347657s80.941406 1.578124 106.554687-29.929688c25.613282-31.511719 28.632813-75.726562 7.542969-110.425781zm-82.035156 130.007812c-44.160156-.046875-79.949219-35.835937-80-80-.035156-11.398437 2.402344-22.671875 7.144531-33.039062 11.503906-25.300781 35.300782-42.828125 62.871094-46.3125 3.3125-.4375 6.648438-.652344 9.984375-.648438 44.183594 0 80 35.820313 80 80 0 44.183594-35.816406 80-80 80zm0 0"/><path d="m480.109375 128.050781c.023437-59.257812-40.648437-110.777343-98.292969-124.511719-57.644531-13.734374-117.179687 13.910157-143.882812 66.808594-30.835938-51.707031-93.539063-74.9375-150.621094-55.800781s-93.109375 75.46875-86.550781 135.3125c6.5625 59.84375 53.941406 107.03125 113.8125 113.34375-10.488281 51.8125 11.945312 104.746094 56.472656 133.242187 44.523437 28.5 101.984375 26.703126 144.644531-4.515624 42.660156-31.222657 61.746094-85.453126 48.042969-136.507813 65.785156-6.191406 116.132813-61.296875 116.375-127.371094zm-361.4375 119.585938c-54.695313-4.632813-97.976563-48.222657-102.214844-102.949219-4.242187-54.726562 31.804688-104.464844 85.136719-117.464844 53.328125-13 108.222656 14.5625 129.644531 65.101563 5.898438 13.820312 8.917969 28.699219 8.871094 43.726562 0 3.625-.238281 7.203125-.582031 10.808594-.082032.800781-.152344 1.601563-.25 2.402344-.40625 3.460937-.957032 6.902343-1.695313 10.300781-.046875.210938-.101562.417969-.152343.625-3.09375 0-6.199219.222656-9.304688.511719-1.0625.097656-2.109375.25-3.199219.375-1.414062.167969-2.832031.28125-4.253906.503906.183594-.660156.238281-1.351563.40625-2.007813.671875-2.664062 1.222656-5.359374 1.648437-8.078124.199219-1.199219.433594-2.398438.585938-3.609376.503906-3.921874.773438-7.875.796875-11.832031 0-53.019531-42.980469-96-96-96s-96 42.980469-96 96c0 3.246094.167969 6.488281.496094 9.714844.105469 1.054687.320312 2.070313.464843 3.117187.289063 2.121094.542969 4.242188.96875 6.3125.253907 1.257813.632813 2.472657.9375 3.710938.4375 1.808594.847657 3.632812 1.390626 5.402344.398437 1.296875.917968 2.542968 1.367187 3.816406.59375 1.648438 1.136719 3.320312 1.808594 4.917969.535156 1.289062 1.183593 2.519531 1.785156 3.777343.71875 1.527344 1.398437 3.070313 2.191406 4.550782.671875 1.25 1.4375 2.402344 2.167969 3.648437.800781 1.410157 1.648438 2.847657 2.558594 4.207031.800781 1.195313 1.679687 2.3125 2.527344 3.464844.960937 1.3125 1.890624 2.632813 2.914062 3.886719.910156 1.121094 1.902344 2.171875 2.863281 3.242187 1.0625 1.199219 2.105469 2.398438 3.199219 3.550782 1.097656 1.152344 2.121094 1.992187 3.199219 2.984375 1.082031.992187 2.304687 2.183593 3.53125 3.199219 1.222656 1.015624 2.300781 1.800781 3.460937 2.6875 1.160156.890624 2.496094 1.945312 3.800782 2.84375 1.304687.894531 2.480468 1.597656 3.738281 2.398437 1.253906.800781 2.664062 1.695313 4.054687 2.464844 1.390625.765625 2.625 1.351562 3.953125 2.015625 1.328125.664062 2.839844 1.4375 4.308594 2.078125 1.472656.640625 2.753906 1.105469 4.144531 1.601562 1.394532.496094 3 1.160157 4.539063 1.664063 1.535156.503906 2.871093.839844 4.316406 1.230468 1.601563.433594 3.144531.871094 4.746094 1.226563 1.472656.320313 2.976562.558594 4.472656.796875 1.597656.273438 3.253906.5625 4.917969.753906 1.519531.175782 3.058594.261719 4.601562.367188 1.175782.082031 2.328125.25 3.519532.289062-.710938 1.457032-1.335938 2.953125-1.992188 4.429688-.382812.867187-.800781 1.714844-1.160156 2.585937-1.167969 2.863281-2.265625 5.734375-3.230469 8.648438zm72.511719-77.824219c-1.097656.457031-2.152344.984375-3.199219 1.464844-2.640625 1.175781-5.25 2.398437-7.792969 3.757812-.855468.457032-1.6875.9375-2.535156 1.417969-2.753906 1.535156-5.445312 3.167969-8.074219 4.902344l-1.808593 1.222656c-2.835938 1.953125-5.589844 4.011719-8.253907 6.179687-.386719.308594-.800781.613282-1.152343.925782-2.855469 2.378906-5.601563 4.878906-8.242188 7.496094-.191406.191406-.398438.367187-.589844.558593-5.488281 5.496094-10.453125 11.484375-14.839844 17.890625-2.175781.183594-4.34375.421875-6.550781.421875-44.1875.019531-80.023437-35.789062-80.035156-79.976562s35.804687-80.015625 79.992187-80.023438c44.183594-.003906 80.007813 35.8125 80.007813 80 0 2.753907-.160156 5.464844-.421875 8.160157-.089844.875-.257812 1.722656-.367188 2.585937-.25 1.808594-.503906 3.625-.867187 5.40625-.207031 1.007813-.488281 2-.734375 3.007813-.390625 1.601562-.800781 3.199218-1.296875 4.753906-.335937 1.070312-.726563 2.136718-1.109375 3.199218-.320312.871094-.683594 1.734376-1.035156 2.601563-1.109375.351563-2.175782.796875-3.269532 1.183594-2.640624.894531-5.296874 1.816406-7.824218 2.863281zm48.925781 230.238281c-35.253906.074219-68.476563-16.492187-89.636719-44.695312-21.15625-28.199219-27.765625-64.730469-17.835937-98.558594.417969-1.449219.882812-2.878906 1.363281-4.304687.636719-1.921876 1.335938-3.824219 2.085938-5.695313.441406-1.121094.863281-2.242187 1.34375-3.34375 1.136718-2.609375 2.371093-5.167969 3.703124-7.671875.625-1.167969 1.304688-2.3125 1.96875-3.464844 1.03125-1.792968 2.089844-3.558594 3.199219-5.28125 1.113281-1.71875 2.265625-3.261718 3.425781-4.871094 1.046876-1.433593 2.078126-2.886718 3.199219-4.265624.800781-1.007813 1.664063-1.957032 2.496094-2.933594 1.601563-1.824219 3.199219-3.632813 4.863281-5.34375.617188-.632813 1.257813-1.226563 1.882813-1.839844 1.949219-1.898438 4-3.746094 6.039062-5.488281.589844-.496094 1.191407-.96875 1.785157-1.449219 2.132812-1.710938 4.320312-3.347656 6.566406-4.910156.734375-.511719 1.488281-1.007813 2.238281-1.503906 2.097656-1.378907 4.25-2.671876 6.402344-3.914063 1.039062-.582031 2.085937-1.160156 3.152343-1.710937 1.910157-1 3.855469-1.921876 5.824219-2.816407 1.421875-.632812 2.847657-1.265625 4.292969-1.839843 1.65625-.664063 3.335938-1.257813 5.027344-1.839844 1.6875-.585938 3.574218-1.222656 5.398437-1.753906 2.398438-.703126 4.800781-1.34375 7.296875-1.878907.847656-.191406 1.6875-.367187 2.535156-.527343 2.726563-.527344 5.488282-.945313 8.28125-1.273438 1.039063-.117188 2.070313-.230469 3.109376-.320312 2.464843-.214844 4.953124-.320313 7.457031-.375.457031 0 .914062-.046876 1.367187-.046876l.351563.070313.816406-.152344c3.6875 0 7.335937.203125 10.9375.554688.550781.054687 1.105469.144531 1.65625.199219 2.886719.328124 5.742187.800781 8.558594 1.3125.976562.191406 1.9375.390624 2.90625.605468 2.75.601563 5.460937 1.289063 8.132812 2.097656.464844.136719.929688.246094 1.394531.390626 3.199219 1.007812 6.324219 2.15625 9.375 3.441406.800782.328125 1.601563.710937 2.34375 1.0625 2.265626 1.003906 4.488282 2.070312 6.664063 3.203125.9375.492187 1.863281 1.007812 2.785156 1.527343 2.132813 1.214844 4.246094 2.496094 6.335938 3.847657.6875.445312 1.382812.871093 2.0625 1.335937 2.738281 1.871094 5.386719 3.851563 7.953125 5.941406.207031.179688.40625.378907.625.554688 2.261718 1.894531 4.4375 3.894531 6.542968 5.960938.800782.75 1.511719 1.527343 2.253907 2.300781 1.507812 1.570312 2.96875 3.167969 4.386719 4.800781.800781.945312 1.597656 1.878906 2.398437 2.855469 1.394531 1.722656 2.695313 3.503906 4 5.3125.617187.871093 1.28125 1.71875 1.871094 2.601562 1.875 2.808594 3.640625 5.679688 5.265625 8.65625.105468.199219.191406.414063.304687.613281 1.449219 2.699219 2.765625 5.457032 4 8.273438.511719 1.183594.960938 2.398438 1.421875 3.585938 13.664063 34.464843 9.347656 73.464843-11.519531 104.109374-20.871094 30.644532-55.578125 48.945313-92.65625 48.855469zm99.015625-193.015625-.117188-.144531c-.296874-.359375-.625-.695313-.929687-1.054687-.449219-.535157-.925781-1.046876-1.382813-1.601563-.855468-.992187-1.703124-1.992187-2.585937-2.949219-.878906-.960937-1.773437-1.855468-2.671875-2.777344-.574219-.582031-1.144531-1.167968-1.734375-1.734374-.59375-.570313-1.351563-1.371094-2.046875-2.035157-1.496094-1.40625-3.058594-2.734375-4.617188-4.070312-.503906-.433594-.984374-.894531-1.496093-1.320313l-.074219-.0625-.695312-.578125c-2.789063-2.269531-5.6875-4.390625-8.648438-6.398437-.535156-.367188-1.078125-.695313-1.597656-1.054688-1.601563-1.035156-3.113282-2.074218-4.722656-3.042968-.796876-.480469-1.636719-.902344-2.445313-1.367188l-.90625-.503906c-.757813-.421875-1.503906-.855469-2.261719-1.265625-.761718-.40625-1.601562-.871094-2.402344-1.285157-1.023437-.519531-2.078124-.976562-3.117187-1.472656-1.488281-.695312-2.953125-1.425781-4.464844-2.074218-.304687-.125-.617187-.238282-.914062-.367188-1.117188-.464844-2.261719-.871094-3.390625-1.3125-1.128906-.4375-2.34375-.957031-3.550782-1.382812-17.664062-31.5-12.03125-70.933594 13.746094-96.230469 25.78125-25.292969 65.308594-30.179688 96.472656-11.921875 31.164063 18.257812 46.226563 55.128906 36.765626 89.984375-9.464844 34.855469-41.109376 59.046875-77.226563 59.039062-4.347656.011719-8.6875-.328125-12.984375-1.015625zm19.5625 32.800782c-.121094-.304688-.273438-.601563-.402344-.902344-.308594-.746094-.664062-1.464844-.984375-2.203125-1.242187-2.839844-2.585937-5.628907-4.039062-8.367188-.382813-.726562-.800781-1.464843-1.167969-2.191406s-.800781-1.480469-1.183594-2.199219c.410156 0 .800782.054688 1.199219.054688 42.375.257812 79.96875-27.128906 92.710937-67.542969 12.742188-40.410156-2.339843-84.410156-37.199218-108.503906-34.855469-24.09375-81.347656-22.65625-114.648438 3.546875-33.304687 26.203125-45.636718 71.050781-30.421875 110.597656-2.222656-.394531-4.457031-.753906-6.71875-1.023438-.714843-.089843-1.425781-.265624-2.144531-.34375.085938-.441406.117188-.898437.199219-1.347656.574219-3.085937 1.039062-6.199218 1.382812-9.335937.105469-.980469.21875-1.964844.296875-2.949219.320313-3.679688.542969-7.386719.542969-11.097656 0-4.230469-.214844-8.414063-.621094-12.566406-.128906-1.367188-.394531-2.703126-.570312-4.066407-.359375-2.765625-.710938-5.535156-1.246094-8.253906-.3125-1.601563-.800781-3.199219-1.144531-4.761719-.578125-2.398437-1.136719-4.863281-1.863282-7.253906-.503906-1.6875-1.136718-3.335938-1.722656-5.007812-.582031-1.671876-1.101562-3.480469-1.78125-5.175782 19.511719-52.363281 74.640625-82.328125 129.195313-70.230468 54.554687 12.097656 91.847656 62.558593 87.394531 118.261718-4.449219 55.703125-49.277344 99.605469-105.0625 102.886719zm0 0"/><path d="m360.109375 176.050781v-8c13.257813 0 24-10.742187 24-24 0-13.253906-10.742187-24-24-24h-16c-4.417969 0-8-3.582031-8-8s3.582031-8 8-8h16c4.417969 0 8 3.582031 8 8h16c0-13.253906-10.742187-24-24-24v-8h-16v8c-13.253906 0-24 10.746094-24 24 0 13.257813 10.746094 24 24 24h16c4.417969 0 8 3.582031 8 8s-3.582031 8-8 8h-16c-4.417969 0-8-3.582031-8-8h-16c0 13.257813 10.746094 24 24 24v8zm0 0"/><path d="m271.902344 313.394531c.128906-.714843.152344-1.449219.074218-2.175781 0-.175781.046876-.34375 0-.519531-.039062-.117188-.085937-.238281-.136718-.351563-.042969-.199218 0-.398437-.082032-.589844l-24-80c-1.011718-3.386718-4.128906-5.707031-7.664062-5.707031s-6.648438 2.320313-7.664062 5.707031l-24 80c-.054688.191407-.039063.390626-.078126.589844-.054687.113282-.097656.234375-.136718.351563v.519531c-.082032.726562-.054688 1.460938.070312 2.175781 0 .265625.066406.523438.128906.800781.253907.941407.671876 1.832032 1.242188 2.625v.054688l24 32c1.507812 2.015625 3.878906 3.199219 6.398438 3.199219 2.519531 0 4.890624-1.183594 6.398437-3.199219l24-32v-.054688c.570313-.792968.988281-1.683593 1.242187-2.625.144532-.277343.167969-.542968.207032-.800781zm-31.792969-53.503906 9.953125 33.175781-5.511719-3.671875c-2.6875-1.792969-6.191406-1.792969-8.878906 0l-5.511719 3.671875zm0 70.824219-12.519531-16.695313 12.519531-8.367187 12.519531 8.351562zm0 0"/></svg>