<?xml version="1.0"?>
<svg xmlns="http://www.w3.org/2000/svg" id="outline" viewBox="0 0 512 512" width="512" height="512"><path d="M57.317,319.133A245.076,245.076,0,0,0,227.057,488.2l26.786,7.5a8.007,8.007,0,0,0,4.314,0l26.786-7.5A245.177,245.177,0,0,0,451.777,328.61a25.294,25.294,0,0,0,4.223.361,24.971,24.971,0,0,0,17.657-42.628l-10.795-10.8c.74-7.764,1.138-15.621,1.138-23.424V64a8,8,0,0,0-8-8A498.7,498.7,0,0,1,287.818,26.869l-29.127-10.4a8,8,0,0,0-5.381,0l-29.128,10.4A498.7,498.7,0,0,1,56,56a8,8,0,0,0-8,8v64.022A39.962,39.962,0,0,0,32,160v56a8,8,0,0,0,8,8h8v28.124c0,2.793.066,5.6.161,8.4l-17.5,17.5a25.764,25.764,0,0,0-7.476,18.359,24.534,24.534,0,0,0,7.5,17.6A25.1,25.1,0,0,0,57.317,319.133ZM380.83,414.224a229.491,229.491,0,0,1-100.2,58.572L256,479.692l-24.628-6.9A229.073,229.073,0,0,1,70.983,308.331l3.1-3.1A72.128,72.128,0,0,0,144,360a8,8,0,0,0,8-8V307.313l12.028,12.029a28.244,28.244,0,0,0,39.944,0L216,307.312a116.48,116.48,0,0,0,34.341,82.345,8,8,0,0,0,11.314,0A116.481,116.481,0,0,0,296,307.312l12.029,12.03a28.278,28.278,0,0,0,39.944,0L352,315.314V360a8,8,0,0,0,8,8,72.13,72.13,0,0,0,69.917-54.77l7.552,7.552A230.011,230.011,0,0,1,380.83,414.224ZM64,71.938a514.509,514.509,0,0,0,165.564-30L256,32.495l26.436,9.441A514.509,514.509,0,0,0,448,71.938V252.124c0,2.791-.07,5.591-.172,8.39L433.1,245.782a19.6,19.6,0,0,0-9.525-5.265A39.781,39.781,0,0,0,432,216V176a40,40,0,0,0-80,0v40a39.787,39.787,0,0,0,8.429,24.517,19.6,19.6,0,0,0-9.525,5.265L328,268.687l-30.9-30.9a19.6,19.6,0,0,0-9.525-5.265A39.781,39.781,0,0,0,296,208V183.248a39.737,39.737,0,0,0,32-38.923V128a8,8,0,0,0-8-8H234.7A18.719,18.719,0,0,0,216,138.7V208a39.787,39.787,0,0,0,8.429,24.517,19.6,19.6,0,0,0-9.525,5.265L184,268.687l-30.9-30.9a19.6,19.6,0,0,0-9.525-5.265A39.781,39.781,0,0,0,152,208V168a39.984,39.984,0,0,0-53.253-37.734A40.013,40.013,0,0,0,64,120.805ZM368,176a24,24,0,0,1,48,0Zm0,40V192h48v24a24,24,0,0,1-48,0Zm-136-8V184h48v24a24,24,0,0,1-48,0Zm56.325-40H232V138.7a2.7,2.7,0,0,1,2.7-2.7H312v8.325A23.7,23.7,0,0,1,288.325,168ZM112,144a24.027,24.027,0,0,1,24,24v8H88v-8A24.028,24.028,0,0,1,112,144ZM88,208V192h48v16a24,24,0,0,1-48,0ZM48,160a24,24,0,0,1,36.165-20.687A39.878,39.878,0,0,0,72,168v33.574A47.7,47.7,0,0,1,48,208Zm16,61.976a63.286,63.286,0,0,0,9.472-3.251,39.89,39.89,0,0,0,6.957,13.792,19.6,19.6,0,0,0-9.525,5.265L64,244.687ZM41.971,289.342,82.218,249.1a3.714,3.714,0,0,1,2.645-1.1h54.274a3.714,3.714,0,0,1,2.645,1.1l36.561,36.561a8,8,0,0,0,11.314,0L226.218,249.1a3.714,3.714,0,0,1,2.645-1.1h54.274a3.714,3.714,0,0,1,2.645,1.1l36.561,36.561a8,8,0,0,0,11.314,0L362.218,257.1a3.714,3.714,0,0,1,2.645-1.1h54.274a3.714,3.714,0,0,1,2.645,1.1l40.561,40.561a8.97,8.97,0,1,1-12.686,12.686l-20-20A8,8,0,0,0,416,296a56.086,56.086,0,0,1-48,55.43V296a8,8,0,0,0-13.657-5.657l-17.685,17.685a12.258,12.258,0,0,1-17.316,0l-25.685-25.685A8,8,0,0,0,280,288v18.745a100.5,100.5,0,0,1-24,65.466,100.5,100.5,0,0,1-24-65.466V288a8,8,0,0,0-13.657-5.657l-25.685,25.685a12.258,12.258,0,0,1-17.316,0l-25.685-25.685A8,8,0,0,0,136,288v55.43A56.087,56.087,0,0,1,88,288a8,8,0,0,0-13.657-5.657l-20,20a9.012,9.012,0,0,1-12.562.122,8.662,8.662,0,0,1-2.6-6.227A9.673,9.673,0,0,1,41.971,289.342Z"/><path d="M256,447.768a211.253,211.253,0,0,1-116.77-76.623l-12.716,9.71a227.273,227.273,0,0,0,127.633,82.927,7.984,7.984,0,0,0,3.706,0A227.7,227.7,0,0,0,382.244,385l-12.487-10A211.653,211.653,0,0,1,256,447.768Z"/><path d="M96,103.915A382.94,382.94,0,0,0,256,64.934a382.944,382.944,0,0,0,160,38.981V128h16V96a8,8,0,0,0-8-8A366.639,366.639,0,0,1,260.867,49.489l-1.29-.645a8,8,0,0,0-7.154,0l-1.291.646A366.641,366.641,0,0,1,88,88a8,8,0,0,0-8,8v16H96Z"/></svg>
