<?xml version="1.0" encoding="UTF-8"?>
<svg xmlns="http://www.w3.org/2000/svg" xmlns:xlink="http://www.w3.org/1999/xlink" width="16pt" height="16pt" viewBox="0 0 16 16" version="1.1">
<defs>
<linearGradient id="linear0" gradientUnits="userSpaceOnUse" x1="240" y1="-88.000505" x2="240" y2="400.063495" gradientTransform="matrix(0.0333333,0,0,0.0333333,0,0)">
<stop offset="0" style="stop-color:rgb(0%,42.745098%,94.117647%);stop-opacity:1;"/>
<stop offset="0.0810811" style="stop-color:rgb(78.823529%,18.039216%,16.078431%);stop-opacity:1;"/>
<stop offset="0.100386" style="stop-color:rgb(23.921569%,22.745098%,22.745098%);stop-opacity:1;"/>
</linearGradient>
<linearGradient id="linear1" gradientUnits="userSpaceOnUse" x1="184" y1="-88.000505" x2="184" y2="400.063495" gradientTransform="matrix(0.0333333,0,0,0.0333333,0,0)">
<stop offset="0" style="stop-color:rgb(0%,42.745098%,94.117647%);stop-opacity:1;"/>
<stop offset="0.0810811" style="stop-color:rgb(78.823529%,18.039216%,16.078431%);stop-opacity:1;"/>
<stop offset="0.100386" style="stop-color:rgb(23.921569%,22.745098%,22.745098%);stop-opacity:1;"/>
</linearGradient>
<linearGradient id="linear2" gradientUnits="userSpaceOnUse" x1="184" y1="-88.000505" x2="184" y2="400.063495" gradientTransform="matrix(0.0333333,0,0,0.0333333,0,0)">
<stop offset="0" style="stop-color:rgb(0%,42.745098%,94.117647%);stop-opacity:1;"/>
<stop offset="0.0810811" style="stop-color:rgb(78.823529%,18.039216%,16.078431%);stop-opacity:1;"/>
<stop offset="0.100386" style="stop-color:rgb(23.921569%,22.745098%,22.745098%);stop-opacity:1;"/>
</linearGradient>
</defs>
<g id="surface1">
<path style=" stroke:none;fill-rule:nonzero;fill:url(#linear0);" d="M 15.84375 0.0234375 C 15.75 -0.0195312 15.640625 -0.00390625 15.558594 0.0625 L 12.265625 2.90625 L 12.265625 1.601562 C 12.265625 0.863281 11.671875 0.265625 10.933594 0.265625 L 1.335938 0.265625 C 0.597656 0.265625 0 0.863281 0 1.601562 L 0 9.066406 C 0 9.804688 0.597656 10.398438 1.335938 10.398438 L 10.933594 10.398438 C 11.671875 10.398438 12.265625 9.804688 12.265625 9.066406 L 12.265625 7.640625 L 15.5625 10.339844 C 15.609375 10.378906 15.671875 10.398438 15.734375 10.398438 C 15.773438 10.398438 15.8125 10.390625 15.847656 10.375 C 15.9375 10.328125 16 10.234375 16 10.132812 L 16 0.265625 C 16 0.164062 15.9375 0.0703125 15.84375 0.0234375 Z M 11.734375 9.066406 C 11.734375 9.507812 11.375 9.867188 10.933594 9.867188 L 1.335938 9.867188 C 0.890625 9.867188 0.53125 9.507812 0.53125 9.066406 L 0.53125 1.601562 C 0.53125 1.15625 0.890625 0.800781 1.335938 0.800781 L 10.933594 0.800781 C 11.375 0.800781 11.734375 1.15625 11.734375 1.601562 Z M 15.46875 9.570312 L 12.265625 6.953125 L 12.265625 3.613281 L 15.46875 0.851562 Z M 15.46875 9.570312 "/>
<path style=" stroke:none;fill-rule:nonzero;fill:url(#linear1);" d="M 6.132812 3.199219 C 4.441406 3.199219 2.070312 5.046875 1.96875 5.125 C 1.90625 5.171875 1.867188 5.25 1.867188 5.335938 C 1.867188 5.414062 1.90625 5.492188 1.96875 5.542969 C 2.070312 5.621094 4.441406 7.46875 6.132812 7.46875 C 7.828125 7.46875 10.195312 5.621094 10.296875 5.542969 C 10.363281 5.492188 10.398438 5.414062 10.398438 5.335938 C 10.398438 5.25 10.363281 5.171875 10.296875 5.125 C 10.195312 5.046875 7.828125 3.199219 6.132812 3.199219 Z M 6.132812 6.933594 C 4.9375 6.933594 3.246094 5.8125 2.582031 5.335938 C 3.246094 4.859375 4.9375 3.734375 6.132812 3.734375 C 7.328125 3.734375 9.023438 4.859375 9.6875 5.335938 C 9.023438 5.8125 7.328125 6.933594 6.132812 6.933594 Z M 6.132812 6.933594 "/>
<path style=" stroke:none;fill-rule:nonzero;fill:url(#linear2);" d="M 4.800781 5.335938 C 4.800781 6.070312 5.398438 6.664062 6.132812 6.664062 C 6.867188 6.664062 7.46875 6.070312 7.46875 5.335938 C 7.46875 4.597656 6.867188 4 6.132812 4 C 5.398438 4 4.800781 4.597656 4.800781 5.335938 Z M 6.933594 5.335938 C 6.933594 5.773438 6.574219 6.132812 6.132812 6.132812 C 5.691406 6.132812 5.335938 5.773438 5.335938 5.335938 C 5.335938 4.890625 5.691406 4.53125 6.132812 4.53125 C 6.574219 4.53125 6.933594 4.890625 6.933594 5.335938 Z M 6.933594 5.335938 "/>
</g>
</svg>
