<?xml version="1.0" encoding="UTF-8"?>
<svg xmlns="http://www.w3.org/2000/svg" xmlns:xlink="http://www.w3.org/1999/xlink" width="32pt" height="32pt" viewBox="0 0 32 32" version="1.1">
<g id="surface1">
<path style=" stroke:none;fill-rule:nonzero;fill:rgb(0%,0%,0%);fill-opacity:1;" d="M 31.148438 5.410156 C 30.621094 5.132812 29.984375 5.171875 29.496094 5.511719 L 23.464844 9.652344 L 23.464844 8 C 23.464844 6.527344 22.273438 5.335938 20.800781 5.332031 L 2.667969 5.332031 C 1.195312 5.335938 0 6.527344 0 8 L 0 24 C 0 25.472656 1.195312 26.664062 2.667969 26.667969 L 20.800781 26.667969 C 22.273438 26.664062 23.464844 25.472656 23.464844 24 L 23.464844 22.347656 L 29.492188 26.492188 C 29.984375 26.828125 30.617188 26.867188 31.144531 26.589844 C 31.671875 26.3125 32 25.769531 32 25.175781 L 32 6.828125 C 32 6.234375 31.671875 5.6875 31.148438 5.410156 Z M 22.398438 24 C 22.398438 24.882812 21.683594 25.601562 20.800781 25.601562 L 2.667969 25.601562 C 1.78125 25.601562 1.066406 24.882812 1.066406 24 L 1.066406 8 C 1.066406 7.117188 1.78125 6.402344 2.667969 6.402344 L 20.800781 6.402344 C 21.683594 6.402344 22.398438 7.117188 22.398438 8 Z M 30.933594 25.175781 C 30.933594 25.371094 30.824219 25.554688 30.648438 25.644531 C 30.472656 25.738281 30.261719 25.726562 30.097656 25.613281 L 23.464844 21.054688 L 23.464844 10.949219 L 30.097656 6.390625 C 30.261719 6.273438 30.472656 6.261719 30.648438 6.355469 C 30.824219 6.445312 30.9375 6.628906 30.933594 6.828125 Z M 30.933594 25.175781 "/>
<path style=" stroke:none;fill-rule:nonzero;fill:rgb(0%,0%,0%);fill-opacity:1;" d="M 17.085938 17.042969 C 16.492188 16.476562 15.554688 16.476562 14.960938 17.042969 L 13.527344 18.476562 C 13.488281 18.515625 13.425781 18.519531 13.382812 18.488281 C 12.597656 17.902344 11.851562 17.265625 11.148438 16.585938 C 10.464844 15.882812 9.832031 15.136719 9.246094 14.351562 C 9.210938 14.308594 9.214844 14.246094 9.257812 14.207031 L 10.691406 12.773438 C 10.972656 12.492188 11.128906 12.109375 11.128906 11.710938 C 11.128906 11.3125 10.972656 10.929688 10.691406 10.648438 L 7.949219 7.910156 C 7.355469 7.339844 6.421875 7.339844 5.824219 7.910156 L 4 9.734375 C 2.109375 11.628906 3.53125 15.042969 8.109375 19.625 C 11.375 22.886719 14.046875 24.546875 16.003906 24.546875 C 16.753906 24.5625 17.472656 24.269531 18 23.734375 L 19.828125 21.90625 C 20.109375 21.625 20.265625 21.242188 20.265625 20.84375 C 20.265625 20.445312 20.109375 20.0625 19.828125 19.78125 Z M 16.332031 17.796875 L 19.074219 20.539062 C 19.242188 20.707031 19.242188 20.984375 19.074219 21.152344 L 18.765625 21.460938 L 15.40625 18.105469 L 15.714844 17.796875 C 15.886719 17.632812 16.160156 17.632812 16.332031 17.796875 Z M 6.886719 8.535156 C 7.003906 8.535156 7.117188 8.578125 7.195312 8.660156 L 9.9375 11.402344 C 10.019531 11.484375 10.066406 11.59375 10.066406 11.710938 C 10.066406 11.824219 10.019531 11.9375 9.9375 12.019531 L 9.628906 12.324219 L 6.273438 8.96875 L 6.582031 8.660156 C 6.664062 8.578125 6.773438 8.535156 6.886719 8.535156 Z M 17.246094 22.980469 C 15.90625 24.316406 12.777344 22.78125 8.863281 18.871094 C 4.953125 14.960938 3.417969 11.824219 4.753906 10.488281 L 5.519531 9.722656 L 8.875 13.082031 L 8.503906 13.453125 C 8.089844 13.871094 8.042969 14.527344 8.398438 14.996094 C 9.011719 15.820312 9.679688 16.605469 10.394531 17.34375 C 11.132812 18.058594 11.917969 18.726562 12.742188 19.34375 C 13.210938 19.695312 13.867188 19.648438 14.285156 19.234375 L 14.660156 18.863281 L 18.015625 22.21875 Z M 17.246094 22.980469 "/>
</g>
</svg>
